<svg width="34" height="19" viewBox="0 0 34 19" fill="none" xmlns="http://www.w3.org/2000/svg">
<path fill-rule="evenodd" clip-rule="evenodd" d="M21.9997 5C21.9997 6.53728 21.3059 7.91253 20.2144 8.82972C21.2878 9.24667 22.27 9.91595 23.0843 10.7981C23.3125 11.0453 23.5246 11.3061 23.7201 11.5786C24.116 11.181 24.5633 10.851 25.0459 10.5973C24.1989 9.83463 23.6663 8.72951 23.6663 7.5C23.6663 5.19881 25.5318 3.33333 27.833 3.33333C30.1342 3.33333 31.9997 5.19881 31.9997 7.5C31.9997 8.72951 31.4671 9.83463 30.6201 10.5973C31.1637 10.8831 31.6626 11.2657 32.0935 11.7326C33.1072 12.8307 33.6663 14.3068 33.6663 15.8333V16.0833C33.6663 16.6595 33.4557 17.2242 33.0623 17.6503C32.6669 18.0787 32.1157 18.3333 31.5253 18.3333H25.0529C24.9235 18.6159 24.7506 18.8786 24.5375 19.1095C24.0195 19.6707 23.3019 20 22.5381 20H11.4612C10.6975 20 9.9799 19.6707 9.46186 19.1095C9.2487 18.8786 9.0759 18.6159 8.94648 18.3333H2.47403C1.88369 18.3333 1.33244 18.0787 0.937019 17.6503C0.543667 17.2242 0.333008 16.6595 0.333008 16.0833V15.8333C0.333008 14.3068 0.892155 12.8307 1.90582 11.7326C2.33679 11.2657 2.8356 10.8831 3.3792 10.5973C2.53221 9.83463 1.99967 8.7295 1.99967 7.5C1.99967 5.19881 3.86515 3.33333 6.16634 3.33333C8.46753 3.33333 10.333 5.19881 10.333 7.5C10.333 8.7295 9.80048 9.83463 8.95348 10.5973C9.43607 10.851 9.88337 11.181 10.2792 11.5786C10.4747 11.3061 10.6869 11.0453 10.9151 10.7981C11.7294 9.91595 12.7115 9.24667 13.785 8.82972C12.6934 7.91253 11.9997 6.53728 11.9997 5C11.9997 2.23858 14.2383 0 16.9997 0C19.7611 0 21.9997 2.23858 21.9997 5ZM16.9997 1.66667C15.1587 1.66667 13.6663 3.15905 13.6663 5C13.6663 6.84095 15.1587 8.33333 16.9997 8.33333C18.8406 8.33333 20.333 6.84095 20.333 5C20.333 3.15905 18.8406 1.66667 16.9997 1.66667ZM21.8596 11.9286C20.7115 10.6848 19.1692 10 17.5766 10H16.4228C14.8302 10 13.2879 10.6848 12.1397 11.9286C11.5716 12.5441 11.1239 13.2711 10.8163 14.0649C10.5401 14.7777 10.3768 15.5444 10.3407 16.3324C10.3356 16.4434 10.333 16.5549 10.333 16.6667V17.0417C10.333 17.0791 10.3344 17.1163 10.3372 17.1531C10.3419 17.2142 10.3503 17.2744 10.3624 17.3335L10.3636 17.3394C10.4149 17.5857 10.5284 17.8078 10.6865 17.979C10.9042 18.2149 11.1845 18.3333 11.4612 18.3333H22.5381C22.8149 18.3333 23.0951 18.2149 23.3128 17.979C23.4709 17.8077 23.5845 17.5857 23.6358 17.3393L23.637 17.3335C23.6489 17.2752 23.6572 17.2158 23.6619 17.1556C23.6649 17.118 23.6663 17.08 23.6663 17.0417V16.6667C23.6663 16.5549 23.6638 16.4434 23.6587 16.3324C23.5824 14.6669 22.9379 13.0968 21.8596 11.9286ZM6.16634 5C4.78563 5 3.66634 6.11929 3.66634 7.5C3.66634 8.88071 4.78563 10 6.16634 10C7.54705 10 8.66634 8.88071 8.66634 7.5C8.66634 6.11929 7.54705 5 6.16634 5ZM25.3236 16.2571L25.333 16.6667H31.5253C31.6286 16.6667 31.7426 16.6228 31.8377 16.5198C31.9348 16.4146 31.9997 16.2586 31.9997 16.0833V15.8333C31.9997 14.7077 31.5863 13.6403 30.8689 12.863C30.1535 12.088 29.1982 11.6667 28.2176 11.6667H27.4484C26.4678 11.6667 25.5125 12.088 24.7972 12.863C24.725 12.9412 24.6558 13.0224 24.5899 13.1063C25.0221 14.0896 25.2734 15.1598 25.3236 16.2571ZM27.833 10C29.2137 10 30.333 8.88071 30.333 7.5C30.333 6.11929 29.2137 5 27.833 5C26.4523 5 25.333 6.11929 25.333 7.5C25.333 8.88071 26.4523 10 27.833 10ZM9.20219 12.863C9.27439 12.9412 9.34353 13.0224 9.4095 13.1063C8.97725 14.0896 8.72592 15.1598 8.6757 16.2571C8.66947 16.3933 8.66634 16.5298 8.66634 16.6667H2.47403C2.37073 16.6667 2.25675 16.6228 2.16169 16.5198C2.06456 16.4146 1.99967 16.2586 1.99967 16.0833V15.8333C1.99967 14.7077 2.41305 13.6403 3.13049 12.863C3.84586 12.088 4.80117 11.6667 5.78173 11.6667H6.55096C7.53152 11.6667 8.48682 12.088 9.20219 12.863Z" fill="#008768"/>
</svg>
