<svg width="34" height="28" viewBox="0 0 34 28" fill="none" xmlns="http://www.w3.org/2000/svg">
<path d="M6.16634 0.666504C5.7061 0.666504 5.33301 1.0396 5.33301 1.49984C5.33301 1.96007 5.7061 2.33317 6.16634 2.33317H27.833C28.2932 2.33317 28.6663 1.96007 28.6663 1.49984C28.6663 1.0396 28.2932 0.666504 27.833 0.666504H6.16634Z" fill="#008754"/>
<path d="M2.83301 3.99984C2.37277 3.99984 1.99967 4.37293 1.99967 4.83317C1.99967 5.29341 2.37277 5.6665 2.83301 5.6665H31.1663C31.6266 5.6665 31.9997 5.29341 31.9997 4.83317C31.9997 4.37293 31.6266 3.99984 31.1663 3.99984H2.83301Z" fill="#008754"/>
<path d="M7.83301 13.9998C8.29325 13.9998 8.66634 14.3729 8.66634 14.8332V19.8332C8.66634 20.2934 8.29325 20.6665 7.83301 20.6665C7.37277 20.6665 6.99967 20.2934 6.99967 19.8332V14.8332C6.99967 14.3729 7.37277 13.9998 7.83301 13.9998Z" fill="#008754"/>
<path d="M26.9997 14.8332C26.9997 14.3729 26.6266 13.9998 26.1663 13.9998C25.7061 13.9998 25.333 14.3729 25.333 14.8332V19.8332C25.333 20.2934 25.7061 20.6665 26.1663 20.6665C26.6266 20.6665 26.9997 20.2934 26.9997 19.8332V14.8332Z" fill="#008754"/>
<path fill-rule="evenodd" clip-rule="evenodd" d="M16.9997 12.3332C14.2383 12.3332 11.9997 14.5717 11.9997 17.3332C11.9997 20.0946 14.2383 22.3332 16.9997 22.3332C19.7611 22.3332 21.9997 20.0946 21.9997 17.3332C21.9997 14.5717 19.7611 12.3332 16.9997 12.3332ZM13.6663 17.3332C13.6663 15.4922 15.1587 13.9998 16.9997 13.9998C18.8406 13.9998 20.333 15.4922 20.333 17.3332C20.333 19.1741 18.8406 20.6665 16.9997 20.6665C15.1587 20.6665 13.6663 19.1741 13.6663 17.3332Z" fill="#008754"/>
<path fill-rule="evenodd" clip-rule="evenodd" d="M0.333008 8.99984C0.333008 8.07936 1.0792 7.33317 1.99967 7.33317H31.9997C32.9202 7.33317 33.6663 8.07936 33.6663 8.99984V25.6665C33.6663 26.587 32.9202 27.3332 31.9997 27.3332H1.99968C1.0792 27.3332 0.333008 26.587 0.333008 25.6665V8.99984ZM4.3567 11.3569C3.73158 11.982 2.88373 12.3332 1.99967 12.3332V8.99984H5.33301C5.33301 9.88389 4.98182 10.7317 4.3567 11.3569ZM5.53521 22.131C4.59753 21.1933 3.32576 20.6665 1.99967 20.6665V13.9998C3.32576 13.9998 4.59753 13.4731 5.53521 12.5354C6.47289 11.5977 6.99967 10.3259 6.99967 8.99984H26.9997C26.9997 10.3259 27.5265 11.5977 28.4641 12.5354C29.4018 13.4731 30.6736 13.9998 31.9997 13.9998V20.6665C30.6736 20.6665 29.4018 21.1933 28.4641 22.131C27.5265 23.0687 26.9997 24.3404 26.9997 25.6665H6.99967C6.99967 24.3404 6.47289 23.0687 5.53521 22.131ZM29.6427 11.3569C29.0175 10.7317 28.6663 9.88389 28.6663 8.99984H31.9997V12.3332C31.1156 12.3332 30.2678 11.982 29.6427 11.3569ZM29.6427 23.3095C30.2678 22.6844 31.1156 22.3332 31.9997 22.3332V25.6665H28.6663C28.6663 24.7824 29.0175 23.9346 29.6427 23.3095ZM4.3567 23.3095C4.98182 23.9346 5.33301 24.7824 5.33301 25.6665H1.99967V22.3332C2.88373 22.3332 3.73158 22.6844 4.3567 23.3095Z" fill="#008754"/>
</svg>
