<svg width="24" height="25" viewBox="0 0 24 25" fill="none" xmlns="http://www.w3.org/2000/svg">
<path fill-rule="evenodd" clip-rule="evenodd" d="M17.3615 2.75143C17.7604 2.58544 18.1881 2.5 18.62 2.5C19.0519 2.5 19.4796 2.58544 19.8785 2.75143C20.2771 2.91733 20.6392 3.16043 20.9439 3.46677L21.0328 3.55584C21.3387 3.861 21.5818 4.22405 21.7475 4.62337C21.9132 5.02287 21.9985 5.45122 21.9985 5.88383C21.9985 6.31643 21.9132 6.74479 21.7475 7.14429C21.5817 7.54379 21.3389 7.90657 21.0328 8.21181L20.2404 9.00206L20.3936 9.15543C20.5888 9.351 20.5888 9.66808 20.3936 9.86365C20.1983 10.0592 19.8817 10.0592 19.6864 9.86365L19.5318 9.70878L6.8528 22.3541C6.7591 22.4475 6.63224 22.5 6.5 22.5H2.5C2.22386 22.5 2 22.2758 2 21.9992V17.9929C2 17.8601 2.05268 17.7327 2.14645 17.6388L14.7979 4.96738L14.6464 4.8157C14.4512 4.62013 14.4512 4.30305 14.6464 4.10747C14.8417 3.9119 15.1583 3.9119 15.3536 4.10747L15.505 4.25916L16.2957 3.46723C16.6003 3.16089 16.9629 2.91733 17.3615 2.75143ZM20.3272 7.50207L19.5333 8.29384L17.9383 6.69628C17.9221 6.67349 17.9039 6.65175 17.8835 6.63134C17.8632 6.61101 17.8416 6.59281 17.8189 6.57671L16.2121 4.96738L17.0036 4.17469L17.0043 4.17392C17.2162 3.96082 17.4679 3.79173 17.7452 3.67635C18.0225 3.56097 18.3198 3.50158 18.62 3.50158C18.9202 3.50158 19.2175 3.56097 19.4948 3.67635C19.7721 3.79173 20.0238 3.96082 20.2357 4.17392L20.2364 4.17469L20.3264 4.26483L20.3272 4.26559C20.54 4.47777 20.7088 4.72995 20.824 5.00765C20.9392 5.28535 20.9985 5.58311 20.9985 5.88383C20.9985 6.18454 20.9392 6.4823 20.824 6.76C20.7088 7.0377 20.54 7.28989 20.3272 7.50207ZM15.505 5.67561L16.8181 6.99074L4.42987 19.408L3.26347 18.2397C3.20929 18.1855 3.14578 18.1463 3.07811 18.1221L15.505 5.67561ZM18.8247 9.00056L17.5252 7.69897L5.13697 20.1162L6.28347 21.2645C6.32634 21.3074 6.35981 21.3562 6.38385 21.4083L18.8247 9.00056ZM5.10282 21.4984L3 19.3923V21.4984H5.10282Z" fill="#007D85"/>
</svg>
