<svg width="24" height="24" viewBox="0 0 26 26" fill="none" xmlns="http://www.w3.org/2000/svg">
<path fill-rule="evenodd" stroke-width="5px" clip-rule="evenodd" d="M0 12.7358C0 5.70201 5.37258 0 12 0C18.6274 0 24 5.70201 24 12.7358C24 19.7696 18.6274 25.4716 12 25.4716C5.37258 25.4716 0 19.7696 0 12.7358ZM12 1.27358C6.03533 1.27358 1.2 6.40538 1.2 12.7358C1.2 15.5865 2.18052 18.1941 3.80314 20.1995C4.17974 18.6662 4.96596 17.2693 6.0803 16.1852C6.97902 15.3109 8.05016 14.6798 9.20319 14.3293C7.99013 13.4047 7.2 11.8946 7.2 10.1886C7.2 7.37512 9.34903 5.09431 12 5.09431C14.651 5.09431 16.8 7.37512 16.8 10.1886C16.8 11.9011 16.0039 13.4162 14.783 14.3398C15.923 14.6923 16.9819 15.3195 17.8717 16.1852C18.997 17.28 19.7878 18.6938 20.1599 20.2449C21.8046 18.2335 22.8 15.608 22.8 12.7358C22.8 6.40538 17.9647 1.27358 12 1.27358ZM11.9829 15.2829L12 15.2829L12.0171 15.2829H12.576L12.5781 15.2829C14.2373 15.2768 15.8377 15.9341 17.0608 17.124C18.198 18.2304 18.9314 19.7216 19.1399 21.3361C17.2365 23.1173 14.7372 24.198 12 24.198C9.24232 24.198 6.72605 23.1011 4.81742 21.2959C5.03284 19.6969 5.76343 18.2212 6.89117 17.124C8.11425 15.9341 9.71473 15.2768 11.3739 15.2829L11.376 15.2829H11.9829ZM12.0148 14.0093C13.9962 14.0009 15.6 12.2935 15.6 10.1886C15.6 8.07849 13.9882 6.36789 12 6.36789C10.0118 6.36789 8.4 8.07849 8.4 10.1886C8.4 12.2935 10.0038 14.0009 11.9852 14.0093H12.0148Z" fill="white"/>
</svg>
